<svg width="317" height="404" viewBox="0 0 317 404" fill="none"
    xmlns="http://www.w3.org/2000/svg">
    <path d="M79.5723 133.822C93.0686 134.549 111.192 136.906 131.56 143.703C154.41 151.333 171.849 161.788 183.617 170.149C170.753 170.179 151.337 168.734 129.22 161.121C106.39 153.264 89.7895 141.981 79.5723 133.822Z" fill="#33404F"/>
    <path d="M64.7514 262.135C61.768 238.053 61.2922 218.297 63.6867 218.015C66.0787 217.724 70.4357 237.016 73.419 261.098C76.4024 285.179 76.8782 304.936 74.4837 305.218C72.0891 305.5 67.7347 286.217 64.7514 262.135Z" fill="#33404F"/>
    <path d="M116.463 144.303L183.31 169.193L204.45 235.535C209.108 250.167 200.994 265.76 186.372 270.279L72.8515 305.327C74.2222 293.885 74.9453 279.409 73.379 262.826C71.669 244.77 67.7511 229.597 63.8636 218.031C70.147 218.423 92.1465 219.743 112.887 219.471C116.861 219.421 123.238 219.25 128.772 215.018C128.772 215.018 133.681 211.265 136.364 203.919C140.667 192.106 133.32 169.127 116.463 144.303Z" fill="#F7F0F4"/>
    <path d="M116.463 144.303L183.31 169.193L204.45 235.535C209.108 250.167 200.994 265.76 186.372 270.279L72.8515 305.327C74.2222 293.885 74.9453 279.409 73.379 262.826C71.669 244.77 67.7511 229.597 63.8636 218.031C70.147 218.423 92.1465 219.743 112.887 219.471C116.861 219.421 123.238 219.25 128.772 215.018C128.772 215.018 133.681 211.265 136.364 203.919C140.667 192.106 133.32 169.127 116.463 144.303Z" fill="black" fill-opacity="0.1"/>
    <path d="M151.032 190.461L157.728 184.119L157.026 225.597L151.032 190.461Z" fill="#33404F"/>
    <path d="M133.391 342.439C109.376 339.001 90.1765 334.271 90.5113 331.883C90.846 329.494 110.586 330.347 134.601 333.785C158.616 337.224 177.816 341.953 177.481 344.341C177.138 346.733 157.406 345.877 133.391 342.439Z" fill="#33404F"/>
    <path d="M114.397 379.567L156.692 382.782L161.278 319.425L118.983 316.21L114.397 379.567Z" fill="#FAFCFE" stroke="#33404F" stroke-miterlimit="10"/>
    <path d="M204.219 385.695L110.596 378.579L109.808 374.541C109.013 370.448 111.725 366.507 115.824 365.807L137.576 367.457C140.061 367.647 142.551 367.203 144.789 366.123C147.482 364.833 150.657 362.868 153.674 359.874C156.254 357.314 158.007 354.706 159.181 352.601C159.769 352.977 160.637 353.56 161.635 354.325C164.932 356.868 165.083 357.975 168.818 361.59C168.818 361.59 170.497 363.212 175.975 367.165C176.703 367.692 177.589 367.943 178.487 367.875C181.933 367.623 190.506 367.735 197.374 374.085C201.929 378.315 203.598 383.306 204.219 385.695Z" fill="#5AB282"/>
    <path d="M109.323 396.246L202.94 403.363L204.218 385.703L110.601 378.586L109.323 396.246Z" fill="#FAFCFE"/>
    <path d="M178.176 367.888C177.894 365.909 177.333 364.777 176.509 364.508C174.724 363.932 171.684 367.307 167.382 374.642" stroke="#33404F" stroke-miterlimit="10"/>
    <path d="M171.882 364.124C171.821 363.653 171.566 362.192 170.518 361.682C169.133 361 167.313 362.429 166.472 363.085C162.762 366.002 162.231 371.352 162.148 373.716" stroke="#33404F" stroke-miterlimit="10"/>
    <path d="M166.819 359.562C166.674 357.887 166.1 357.364 165.729 357.174C163.969 356.256 160.728 359.631 159.966 360.427C158.515 361.941 156.312 364.775 155.169 369.536" stroke="#33404F" stroke-miterlimit="10"/>
    <path d="M165.002 357.011C169.875 359.941 174.669 359.816 176.642 357.47C177.408 356.558 178.121 354.875 177.467 354.01C176.15 352.254 170.002 354.679 165.002 357.011Z" stroke="#33404F" stroke-miterlimit="10"/>
    <path d="M164.569 357.002C156.852 354.715 149.815 355.701 147.323 358.562C146.357 359.676 145.603 361.611 146.73 362.425C148.99 364.07 157.621 360.388 164.569 357.002Z" stroke="#33404F" stroke-miterlimit="10"/>
    <path d="M110.555 379.281L204.172 386.398L204.223 385.701L110.606 378.584L110.555 379.281Z" fill="#33404F"/>
    <path d="M110.368 381.782L203.985 388.898L204.036 388.201L110.419 381.084L110.368 381.782Z" fill="#33404F"/>
    <path d="M211.703 70.664C217.317 69.0359 220.535 63.1536 218.89 57.5254C217.245 51.8973 211.361 48.6546 205.746 50.2826C200.132 51.9107 196.915 57.793 198.559 63.4212C200.204 69.0493 206.089 72.2921 211.703 70.664Z" fill="#33404F"/>
    <path d="M215.84 56.6747C221.454 55.0466 224.671 49.1643 223.027 43.5361C221.382 37.9079 215.497 34.6651 209.883 36.2932C204.268 37.9213 201.051 43.8036 202.696 49.4318C204.341 55.06 210.225 58.3028 215.84 56.6747Z" fill="#33404F"/>
    <path d="M205.067 82.3486C212.293 80.2531 216.434 72.6821 214.317 65.4382C212.2 58.1943 204.626 54.0207 197.4 56.1161C190.174 58.2116 186.032 65.7826 188.15 73.0265C190.267 80.2704 197.841 84.444 205.067 82.3486Z" fill="#33404F"/>
    <path d="M154.917 63.6707C162.143 61.5753 166.284 54.0043 164.167 46.7604C162.05 39.5165 154.476 35.3428 147.25 37.4383C140.024 39.5337 135.882 47.1048 138 54.3486C140.117 61.5925 147.691 65.7662 154.917 63.6707Z" fill="#33404F"/>
    <path d="M159.586 182.362L141.372 199.59" stroke="#33404F" stroke-width="0.5" stroke-miterlimit="10"/>
    <path d="M85.2635 131.731L145.384 155.954L177.512 344.218C164.753 340.976 150.458 338.007 134.764 335.78C118.73 333.508 103.874 332.38 90.4941 331.955L96.8252 230.025C96.9217 228.425 96.4567 226.834 95.4979 225.549C89.7244 217.837 79.2478 201.297 77.2359 177.922C75.3586 156.185 81.7415 139.444 85.2635 131.731Z" fill="#F7F0F4"/>
    <path d="M212.005 131.417C226.25 125.294 236.9 118.247 235.792 115.679C234.684 113.11 222.237 115.991 207.993 122.114C193.748 128.238 183.098 135.284 184.206 137.853C185.314 140.421 197.761 137.54 212.005 131.417Z" fill="#33404F"/>
    <path d="M288.618 109.081L288.606 109.064C287.117 106.366 288.083 102.97 290.772 101.488L306.658 92.7152C309.404 91.1938 312.878 92.1959 314.399 94.9628C315.755 97.4048 314.875 100.475 312.433 101.827L295.619 111.122C293.133 112.491 289.994 111.575 288.618 109.081Z" fill="#FAFCFE" stroke="#33404F" stroke-miterlimit="10"/>
    <path d="M280.791 96.5439C280.792 96.5148 280.758 96.496 280.736 96.5213C278.432 98.455 273.283 102.499 266.818 108.16C263.925 110.696 259.508 113.089 250.662 117.869C244.468 121.219 239.101 123.763 235.112 125.562C233.057 122.783 231.01 120.002 228.955 117.223C224.004 118.313 218.228 119.95 211.972 122.464C205.338 125.126 199.764 128.142 195.265 130.943C202.659 139.259 210.044 147.577 217.438 155.893C222.892 162.02 231.812 163.613 239.013 159.751L287.534 133.686C288.261 133.293 288.852 132.7 289.254 131.98L297.943 115.932C297.95 115.92 297.958 115.918 297.967 115.915L311.686 112.004C314.504 111.206 316.268 108.211 315.288 105.447C314.377 102.854 311.59 101.466 309.005 102.274L289.758 108.248L279.919 112.05C280.211 106.865 280.502 101.709 280.791 96.5439Z" fill="#FAFCFE" stroke="#33404F" stroke-miterlimit="10"/>
    <path d="M302.293 75.5149L312.315 98.2552C312.732 99.1891 312.61 100.279 311.999 101.099C302.452 114.049 292.914 126.997 283.367 139.947C282.737 140.801 281.429 140.711 280.925 139.773C277.179 132.845 273.421 125.91 269.674 118.981C269.154 118.02 269.221 116.84 269.861 115.955C279.612 102.36 289.354 88.7685 299.104 75.174C299.932 74.0136 301.71 74.2075 302.293 75.5149Z" fill="#33404F"/>
    <path d="M300.397 81.1655L308.119 98.6861C308.435 99.4092 308.346 100.25 307.881 100.883C300.525 110.859 293.172 120.844 285.825 130.817C285.339 131.476 284.332 131.403 283.94 130.683C281.051 125.346 278.159 120.001 275.27 114.664C274.87 113.917 274.924 113.02 275.411 112.332C282.919 101.862 290.433 91.3798 297.94 80.9094C298.575 80.0062 299.948 80.1546 300.397 81.1655Z" fill="#FCDDEC"/>
    <path d="M288.629 120.927C288.355 124.113 292.452 126.184 293.562 126.745C294.875 127.409 296.332 128.137 297.826 127.656C300.398 126.833 301.719 122.845 300.378 120.482C299.703 119.288 298.501 118.774 296.62 117.967C294.728 117.154 293.429 116.601 291.939 117.033C290.199 117.528 288.778 119.177 288.629 120.927Z" fill="#FAFCFE" stroke="#33404F" stroke-miterlimit="10"/>
    <path d="M283.4 127.477C282.643 130.582 286.334 133.232 287.337 133.948C288.522 134.793 289.83 135.737 291.372 135.481C294.019 135.049 295.921 131.315 294.968 128.772C294.488 127.492 293.388 126.805 291.669 125.731C289.938 124.651 288.755 123.911 287.227 124.114C285.462 124.357 283.82 125.773 283.4 127.477Z" fill="#FAFCFE" stroke="#33404F" stroke-miterlimit="10"/>
    <path d="M272.668 108.314C274.999 104.935 277.33 101.555 279.67 98.1729C280.078 97.575 281.28 97.0731 282.782 96.4843C287.118 94.7954 288.904 96.588 291.818 94.9758C294.353 93.5697 296.34 90.3568 295.597 88.8944C295.576 88.8528 295.559 88.8288 295.543 88.8048C295.292 88.4366 294.185 87.8564 286.407 87.6861C284.136 87.6354 283 87.6101 282.363 87.6893C277.626 88.2673 274.409 90.9066 272.987 92.0955C271.794 93.084 270.987 93.759 270.256 94.9874C269.091 96.9261 269.109 98.5893 268.777 100.891C268.314 104.15 268.251 105.242 267.362 106.814C255.634 113.676 243.9 120.549 232.172 127.412" fill="#FAFCFE"/>
    <path d="M272.668 108.314C274.999 104.935 277.33 101.555 279.67 98.1729C280.078 97.575 281.28 97.0731 282.782 96.4843C287.118 94.7954 288.904 96.588 291.818 94.9758C294.353 93.5697 296.34 90.3568 295.597 88.8944C295.576 88.8528 295.559 88.8288 295.543 88.8048C295.292 88.4366 294.185 87.8564 286.407 87.6861C284.136 87.6354 283 87.6101 282.363 87.6893C277.626 88.2673 274.409 90.9066 272.987 92.0955C271.794 93.084 270.987 93.759 270.256 94.9874C269.091 96.9261 269.109 98.5893 268.777 100.891C268.314 104.15 268.251 105.242 267.362 106.814C255.634 113.676 243.9 120.549 232.172 127.412" stroke="#33404F" stroke-miterlimit="10"/>
    <path d="M216.046 35.3278C213.762 23.4751 205.258 15.1302 197.053 16.6891C188.847 18.248 184.047 29.1202 186.332 40.9729C188.616 52.8257 197.119 61.1705 205.325 59.6117C213.53 58.0528 218.33 47.1806 216.046 35.3278Z" fill="#FAFCFE" stroke="#33404F" stroke-width="0.5" stroke-miterlimit="10"/>
    <path d="M195.409 82.647L154.123 62.2326C135.645 78.7512 116.959 96.298 98.2108 114.937C91.8677 121.244 85.6469 127.545 79.5548 133.827C84.2893 134.353 91.3024 135.54 99.2602 138.554C107.485 141.662 109.169 143.858 122.741 151.485C137.569 159.812 144.985 163.98 152.512 165.162C155.247 165.586 158.433 165.851 162.81 166.691C165.556 167.218 167.26 167.683 168.771 168.041C172.273 168.866 177.419 169.818 184.258 170.213C182.616 166.461 182.141 163.329 182.006 161.134C181.669 155.499 183.404 152.043 184.248 142.824C184.44 140.697 184.549 138.748 184.564 138.504C184.709 135.5 184.658 133.329 184.703 131.388C184.91 123.198 187.047 109.012 195.409 82.647Z" fill="#5AB282"/>
    <path d="M138.284 52.8666C141.744 48.6706 145.212 44.472 148.675 40.2849C148.458 39.0534 147.49 32.8624 151.524 27.225C154.328 23.3055 158.073 21.7209 159.596 21.1737C159.902 19.9632 161.865 12.5771 169.153 8.81471C173.963 6.3268 178.539 6.73513 180.327 6.9934C187.597 0.388626 197.589 -1.3201 205.343 2.56726C212.329 6.08305 214.935 12.8727 215.563 14.6944C216.619 15.2318 222.975 18.6233 224.777 25.8668C226.011 30.8107 224.489 35.0585 224.01 36.3959C223.588 37.5727 222.876 39.486 221.166 41.4582C219.446 43.424 217.557 44.4894 216.389 45.0392C216.718 42.403 216.95 37.8296 215.357 32.5103C214.022 28.0748 211.946 24.8322 210.44 22.8529C206.25 26.6469 202.667 28.9134 200.39 30.1873C196.922 32.1324 195.529 32.3063 194.914 32.3601C192.56 32.5537 191.223 31.7429 189.799 32.5969C188.369 33.4623 188.002 35.3137 187.823 36.3052C187.091 40.314 185.878 48.3358 184.559 58.8427C169.147 56.8308 153.714 54.8443 138.284 52.8666Z" fill="#33404F"/>
    <path d="M235.834 115.334C229.764 107.784 225.014 101.578 221.931 97.4769C213.423 86.1669 209.628 80.3834 202.175 72.1903C197.778 67.358 193.949 63.713 191.578 61.5242C187.092 57.3986 183.209 55.1403 177.848 51.719C169.766 46.5461 165.626 43.9309 161.074 42.95C159.308 42.5703 156.553 42.1421 147.47 43.0023C142.146 43.5013 134.731 44.1463 124.953 46.5216C118.255 48.1475 109.687 50.7665 100.13 55.1102C109.544 76.4547 118.957 97.7992 128.373 119.153C146.844 125.282 165.312 131.403 183.791 137.53C190.523 132.682 199.639 127.095 211.145 122.483C220.353 118.778 228.8 116.626 235.834 115.334Z" fill="#5AB282"/>
    <path d="M194.269 55.9406C193.363 57.8141 192.448 59.6901 191.542 61.5636C188.607 67.0647 182.301 68.6248 178.776 66.5119C174.996 64.243 173.233 56.9691 177.85 51.987C180.896 48.6973 183.834 45.4673 186.941 41.8627" fill="#FAFCFE"/>
    <path d="M194.269 55.9406C193.363 57.8141 192.448 59.6901 191.542 61.5636C188.607 67.0647 182.301 68.6248 178.776 66.5119C174.996 64.243 173.233 56.9691 177.85 51.987C180.896 48.6973 183.834 45.4673 186.941 41.8627" stroke="#33404F" stroke-width="0.5" stroke-miterlimit="10"/>
    <path d="M194.269 55.9406C193.363 57.8141 192.448 59.6901 191.542 61.5636C188.607 67.0647 182.301 68.6248 178.776 66.5119C174.996 64.243 173.233 56.9691 177.85 51.987C180.896 48.6973 183.834 45.4673 186.941 41.8627" fill="#FAFCFE"/>
    <path d="M194.269 55.9406C193.363 57.8141 192.448 59.6901 191.542 61.5636C188.607 67.0647 182.301 68.6248 178.776 66.5119C174.996 64.243 173.233 56.9691 177.85 51.987C180.896 48.6973 183.834 45.4673 186.941 41.8627" stroke="#33404F" stroke-miterlimit="10"/>
    <path d="M192.217 34.3816C191.526 30.7968 188.514 28.3565 185.49 28.931C182.466 29.5055 180.575 32.8773 181.265 36.4621C181.956 40.0468 184.968 42.4871 187.992 41.9126C191.016 41.3381 192.907 37.9663 192.217 34.3816Z" fill="#FAFCFE"/>
    <path d="M104.768 78.6353C108.672 87.6755 113.225 94.9074 116.356 97.4412C116.38 97.4247 116.404 97.4082 116.419 97.3942C117.639 96.2351 118.839 95.0722 120.03 93.9118C119.73 89.483 117.677 82.2934 114.327 74.5305C109.145 62.5246 102.81 53.7099 100.166 54.8408C97.5312 55.9693 99.5941 66.6269 104.768 78.6353Z" fill="#33404F"/>
    <path d="M152.168 61.0068C141.909 72.1409 131.134 83.2135 119.811 94.1768C118.602 95.3422 117.402 96.5051 116.2 97.6592C116.185 97.6731 116.161 97.6896 116.146 97.7036C111.704 101.944 107.131 106.224 102.42 110.524C98.8189 113.811 95.2413 117.016 91.6784 120.139" stroke="#33404F" stroke-miterlimit="10"/>
    <path d="M139.68 62.912C138.677 67.7571 137.679 72.5908 136.676 77.4359L139.68 62.912Z" fill="#33404F"/>
    <path d="M139.68 62.912C138.677 67.7571 137.679 72.5908 136.676 77.4359" stroke="#33404F" stroke-miterlimit="10"/>
    <path d="M194.338 81.7015C192.097 92.5526 189.994 103.814 188.084 115.471C185.654 130.259 183.698 144.575 182.149 158.351C181.694 162.423 182.43 166.544 184.275 170.208" stroke="#33404F" stroke-miterlimit="10"/>
    <path d="M198.976 92.5615L190.162 103.372" stroke="#33404F" stroke-miterlimit="10"/>
    <path d="M184.129 31.6525C184.299 31.6127 186.583 31.1136 188.13 32.6782C189.608 34.1672 189.818 36.9154 188.304 38.9653" stroke="#33404F" stroke-miterlimit="10"/>
    <path d="M189.242 35.0405C188.994 34.882 187.587 34.0247 185.952 34.5179C185.232 34.7364 184.726 35.1324 184.442 35.4063" stroke="#33404F" stroke-miterlimit="10"/>
    <path d="M197.683 58.0665C196.657 57.4342 195.253 56.4606 193.776 55.0386C193.484 54.7589 193.018 54.3093 192.496 53.7031C191.286 52.3093 190.418 50.7487 189.326 48.5153C188.328 46.475 187.691 44.6558 187.292 43.3238C188.755 49.4095 190.212 55.5065 191.675 61.5922C193.663 60.4115 195.674 59.2434 197.683 58.0665Z" fill="#33404F"/>
    <path d="M105.206 59.0936C95.1086 66.758 85.2407 74.3558 75.1435 82.0201C68.0823 87.3755 66.7203 97.4731 72.1008 104.561C85.1893 121.791 98.2891 139.027 111.378 156.257C116.554 147.661 121.74 139.062 126.92 130.475L102.43 95.8997C107.465 92.0524 112.5 88.2051 117.537 84.3667C116.286 80.348 114.582 75.7607 112.214 70.8673C110.006 66.2919 107.428 62.409 105.206 59.0936Z" fill="#FAFCFE" stroke="#33404F" stroke-miterlimit="10"/>
    <path d="M277.065 99.7336L279.086 101.314L272.959 110.291L270.798 108.655L277.065 99.7336Z" fill="#FAFCFE"/>
    <path d="M146.069 161.374C156.474 222.334 166.881 283.303 177.278 344.266" stroke="#33404F" stroke-miterlimit="10"/>
    <path d="M109.32 396.236L202.934 403.354" stroke="#33404F" stroke-miterlimit="10"/>
    <path d="M18.6508 334.22L19.7309 240.253L23.7061 239.232C27.7363 238.201 31.8394 240.683 32.8004 244.739L32.5529 266.57C32.5229 269.064 33.1258 271.528 34.3466 273.701C35.8049 276.318 37.9686 279.376 41.1473 282.219C43.8656 284.649 46.5784 286.25 48.7518 287.3C48.4148 287.91 47.89 288.811 47.1913 289.853C44.8673 293.294 43.7737 293.51 40.4095 297.45C40.4095 297.45 38.9 299.222 35.3107 304.925C34.8319 305.683 34.6385 306.583 34.7646 307.476C35.2367 310.905 35.6757 319.479 29.7862 326.708C25.8612 331.504 20.9929 333.461 18.6508 334.22Z" fill="#5AB282"/>
    <path d="M2.0351 240.002L0.953613 333.963L18.6431 334.219L19.7246 240.258L2.0351 240.002Z" fill="#FAFCFE"/>
    <path d="M34.7312 307.166C36.6866 306.769 37.7791 306.144 37.9943 305.305C38.4535 303.488 34.8939 300.645 27.3039 296.771" stroke="#33404F" stroke-miterlimit="10"/>
    <path d="M38.0799 300.659C38.5458 300.571 39.9852 300.232 40.4272 299.155C41.0179 297.731 39.4762 295.995 38.768 295.192C35.6219 291.654 30.2535 291.433 27.8915 291.486" stroke="#33404F" stroke-miterlimit="10"/>
    <path d="M42.3033 295.336C43.9631 295.094 44.4485 294.49 44.6137 294.109C45.416 292.296 41.8429 289.253 41.0001 288.538C39.3976 287.175 36.4301 285.137 31.6101 284.271" stroke="#33404F" stroke-miterlimit="10"/>
    <path d="M44.73 293.373C42.1218 298.412 42.5538 303.195 45.0194 305.031C45.9784 305.744 47.7024 306.359 48.5226 305.655C50.189 304.238 47.3759 298.234 44.73 293.373Z" stroke="#33404F" stroke-miterlimit="10"/>
    <path d="M44.7105 292.94C46.4953 285.096 45.06 278.121 42.0478 275.796C40.875 274.895 38.8974 274.254 38.1583 275.427C36.6627 277.78 40.8883 286.192 44.7105 292.94Z" stroke="#33404F" stroke-miterlimit="10"/>
    <path d="M19.0281 240.253L17.9465 334.214L18.6449 334.224L19.7265 240.263L19.0281 240.253Z" fill="#33404F"/>
    <path d="M16.5238 240.21L15.4424 334.172L16.1408 334.182L17.2222 240.22L16.5238 240.21Z" fill="#33404F"/>
    <path d="M2.04541 239.998L0.962319 333.957" stroke="#33404F" stroke-miterlimit="10"/>
    <path d="M100.079 92.3466C120.875 122.118 136.036 143.797 136.759 144.863C136.873 145.022 137.233 145.57 137.903 145.999C138.372 146.295 138.869 146.458 139.417 146.568C140.616 146.815 141.439 146.366 142.847 146.802C143.571 147.024 144.104 147.378 144.421 147.613L159.241 158.6C161.134 160.008 161.636 162.769 160.216 164.638C158.711 166.608 155.892 166.993 153.897 165.499L143.924 158.019L164.646 184.34C165.91 185.95 165.905 188.282 164.491 189.746C162.778 191.528 159.931 191.364 158.404 189.475L143.509 171.02L158.636 191.768C159.749 193.287 159.69 195.433 158.379 196.762C156.788 198.374 154.198 198.174 152.838 196.429L137.432 176.558C141.549 183.575 145.667 190.593 149.781 197.602C150.803 199.493 150.05 201.782 148.347 202.621C146.878 203.344 144.949 202.856 143.878 201.383C138.949 193.094 134.018 184.797 129.09 176.508L134.696 190.767C135.268 192.232 134.879 193.937 133.626 194.875C131.897 196.181 129.578 195.434 128.827 193.589L122.229 177.411C119.805 174.152 117.864 171.635 116.701 170.14C112.392 164.588 110.299 161.712 110.588 158.818C110.647 158.235 110.813 157.334 111.401 156.243" fill="#FAFCFE"/>
    <path d="M100.079 92.3466C120.875 122.118 136.036 143.797 136.759 144.863C136.873 145.022 137.233 145.57 137.903 145.999C138.372 146.295 138.869 146.458 139.417 146.568C140.616 146.815 141.439 146.366 142.847 146.802C143.571 147.024 144.104 147.378 144.421 147.613L159.241 158.6C161.134 160.008 161.636 162.769 160.216 164.638C158.711 166.608 155.892 166.993 153.897 165.499L143.924 158.019L164.646 184.34C165.91 185.95 165.905 188.282 164.491 189.746C162.778 191.528 159.931 191.364 158.404 189.475L143.509 171.02L158.636 191.768C159.749 193.287 159.69 195.433 158.379 196.762C156.788 198.374 154.198 198.174 152.838 196.429L137.432 176.558C141.549 183.575 145.667 190.593 149.781 197.602C150.803 199.493 150.05 201.782 148.347 202.621C146.878 203.344 144.949 202.856 143.878 201.383C138.949 193.094 134.018 184.797 129.09 176.508L134.696 190.767C135.268 192.232 134.879 193.937 133.626 194.875C131.897 196.181 129.578 195.434 128.827 193.589L122.229 177.411C119.805 174.152 117.864 171.635 116.701 170.14C112.392 164.588 110.299 161.712 110.588 158.818C110.647 158.235 110.813 157.334 111.401 156.243" stroke="#33404F" stroke-miterlimit="10"/>
    <path d="M147.994 169.437C147.994 169.437 145.403 164.633 143.721 166.558L147.994 169.437Z" fill="#FAFCFE"/>
    <path d="M147.994 169.437C147.994 169.437 145.403 164.633 143.721 166.558" stroke="#33404F" stroke-miterlimit="10"/>
    <path d="M142.472 174.758C142.472 174.758 139.881 169.954 138.199 171.88L142.472 174.758Z" fill="#FAFCFE"/>
    <path d="M142.472 174.758C142.472 174.758 139.881 169.954 138.199 171.88" stroke="#33404F" stroke-miterlimit="10"/>
    <path d="M134.881 177.516C134.282 175.435 133.008 174.086 131.827 174.131C131.591 174.142 131.257 174.209 130.876 174.473" fill="#FAFCFE"/>
    <path d="M134.881 177.516C134.282 175.435 133.008 174.086 131.827 174.131C131.591 174.142 131.257 174.209 130.876 174.473" stroke="#33404F" stroke-miterlimit="10"/>
    <path d="M128.962 144.387C128.962 144.387 119.593 147.455 116.286 154.873L128.962 144.387Z" fill="#FAFCFE"/>
    <path d="M128.962 144.387C128.962 144.387 119.593 147.455 116.286 154.873" stroke="#33404F" stroke-miterlimit="10"/>
</svg>
