<svg xmlns="http://www.w3.org/2000/svg" width="369" height="482" fill="none" viewBox="0 0 369 482"><path fill="#FAFCFE" stroke="#33404F" stroke-miterlimit="10" d="M319.84 449.629C320.106 451.843 318.622 453.923 316.434 454.393L204.013 468.809C203.636 465.848 203.682 462.915 204.122 460.099C241.193 455.342 278.273 450.597 315.344 445.841C317.598 445.736 319.566 447.394 319.84 449.629Z"/><path fill="#33404F" d="M275.603 207.653C275.884 205.318 249.986 200.308 217.758 196.463C185.531 192.618 159.178 191.394 158.897 193.729C158.616 196.064 184.514 201.074 216.742 204.919C248.969 208.764 275.322 209.988 275.603 207.653Z"/><path fill="#33404F" d="M235.391 279.525C237.187 281.044 227.104 295.879 212.876 312.652C198.649 329.426 185.671 341.799 183.876 340.27C182.08 338.751 192.163 323.917 206.39 307.144C220.607 290.379 233.595 278.006 235.391 279.525Z"/><path fill="#FAFCFE" stroke="#33404F" stroke-miterlimit="10" d="M282.805 330.943L256.492 373.115C233.815 358.924 211.136 344.743 188.468 330.553C191.078 326.143 194.038 321.545 197.369 316.822C203.16 308.633 209.057 301.579 214.653 295.561C237.373 307.365 260.093 319.16 282.805 330.943Z"/><path fill="#F7F0F4" stroke="#33404F" stroke-miterlimit="10" d="M240.699 304.659L214.39 346.833L256.522 373.108L282.83 330.934L240.699 304.659Z"/><path fill="#33404F" stroke="#33404F" stroke-miterlimit="10" d="M311.795 386.211C311.893 391.293 311.982 396.365 312.081 401.448L307.928 408.1L288.892 438.545L281.835 449.831L281.627 450.164L270.626 451.524L268.118 451.847C268.059 451.761 267.997 451.694 267.946 451.619C263.086 445.357 260.826 437.482 261.544 429.666C261.674 428.222 261.912 426.781 262.258 425.353L262.26 425.343C263.015 422.116 264.317 418.963 266.172 416.003L271.631 407.27L278.321 396.576L278.504 396.28L281.607 391.311C281.627 391.304 281.63 391.284 281.642 391.266L281.703 391.164L281.429 391.053L256.095 380.304L248.252 376.979L231.367 369.814L237.044 360.739L237.057 360.711L250.815 338.722L254.931 332.135L260.486 323.254L260.487 323.244L260.558 323.144L262.401 320.202L263.368 318.638L266.921 312.958C270.319 315.616 273.717 318.274 277.115 320.932L277.152 320.956C280.232 323.369 283.312 325.782 286.401 328.196C289.971 330.993 293.55 333.801 297.13 336.6L301.002 339.621C301.002 339.621 301.002 339.621 301 339.63L309.941 346.625L328.855 358.394C323.155 367.664 317.475 376.938 311.795 386.211Z"/><path fill="#B0B8B5" stroke="#33404F" stroke-miterlimit="10" d="M328.853 358.503L315.439 380.005L311.64 377.638L311.641 377.628L305.745 373.945C305.607 373.849 305.458 373.763 305.312 373.656C303.789 372.685 302.385 371.549 301.14 370.322C296.698 365.995 293.98 360.329 293.229 354.386C292.822 351.173 292.991 347.878 293.755 344.662C294.417 341.891 295.527 339.192 297.125 336.649L300.995 339.679C300.995 339.679 300.995 339.679 300.994 339.689L309.943 346.695L328.853 358.503Z"/><path stroke="#33404F" stroke-miterlimit="10" stroke-width=".5" d="M278.525 396.441L290.301 377.566"/><path fill="#FAFCFE" stroke="#33404F" stroke-miterlimit="10" stroke-width=".5" d="M281.714 391.324C282.016 391.121 279.588 388.734 279.1 384.609C278.563 380.05 281.026 378.759 280.259 375.058C279.495 371.346 275.969 367.492 272.563 367.86C271.156 368.014 269.473 368.919 268.838 370.443C268.007 372.451 269.374 374.664 272.864 379.675C276.177 384.407 281.229 391.655 281.714 391.324Z"/><path fill="#FAFCFE" stroke="#33404F" stroke-miterlimit="10" stroke-width=".5" d="M281.654 391.416C281.602 391.777 278.392 390.64 274.471 392.019C270.136 393.539 270.068 396.32 266.396 397.262C262.735 398.206 257.709 396.738 256.548 393.526C256.07 392.19 256.145 390.283 257.232 389.05C258.674 387.412 261.251 387.682 267.293 388.604C273.012 389.487 281.742 390.831 281.654 391.416Z"/><path fill="#FAFCFE" d="M281.654 391.416C276.401 392.899 274.244 395.139 273.272 397C272.748 398.001 272.433 399.165 271.276 400.658C269.849 402.507 268.124 403.596 266.839 404.231"/><path stroke="#33404F" stroke-miterlimit="10" stroke-width=".5" d="M281.654 391.416C276.401 392.899 274.244 395.139 273.272 397C272.748 398.001 272.433 399.165 271.276 400.658C269.849 402.507 268.124 403.596 266.839 404.231"/><path fill="#5AB282" d="M214.423 197.731L168.146 192.683C149.767 229.873 131.389 267.064 113.02 304.256C124.95 310.289 136.877 316.341 148.785 322.392C160.561 328.377 172.327 334.371 184.1 340.386C185.868 336.394 188.514 331.005 192.287 324.964C195.535 319.774 199.66 314.032 206.828 306.033C213.436 298.664 224.067 287.774 239.519 275.451C233.417 274.532 227.314 273.623 221.212 272.705L214.423 197.731Z"/><path fill="#33404F" d="M273.227 330.031C305.618 325.879 331.635 320.622 331.339 318.289C331.042 315.956 304.544 317.432 272.153 321.584C239.762 325.737 213.745 330.994 214.041 333.327C214.338 335.659 240.836 334.184 273.227 330.031Z"/><path fill="#FAFCFE" stroke="#33404F" stroke-miterlimit="10" d="M307.553 391.165L258.277 397.478C255.142 372.789 252.015 348.111 248.88 323.422C255.726 322.145 262.916 320.977 270.443 319.977C280.145 318.695 289.414 317.818 298.169 317.259C301.29 341.897 304.422 366.526 307.553 391.165Z"/><path fill="#F7F0F4" stroke="#33404F" stroke-miterlimit="10" d="M301.317 341.884L252.042 348.201L258.307 397.487L307.581 391.17L301.317 341.884Z"/><path fill="#33404F" stroke="#33404F" stroke-miterlimit="10" d="M311.483 368.995L311.641 377.628L311.639 377.638L311.799 385.834L311.798 385.844L311.803 386.39L311.802 386.4L312.086 401.657L312.194 407.415L312.514 423.708L315.325 445.839C278.253 450.595 241.174 455.341 204.102 460.097C206.164 446.661 216.901 435.635 231.061 433.819L260.004 430.112C260.014 430.113 260.014 430.113 260.023 430.114L260.144 430.098L260.059 429.81C260.06 429.801 260.06 429.801 260.06 429.801L244.932 377.546L311.483 368.995Z"/><path fill="#B0B8B5" stroke="#33404F" stroke-miterlimit="10" d="M312.001 405.765L312.408 422.753L315.344 445.841L290.228 449.061L288.72 437.225C287.733 429.488 289.849 422.103 294.067 416.411C297.45 411.842 302.173 408.363 307.746 406.689C309.115 406.263 310.54 405.952 312.001 405.765Z"/><path stroke="#FAFCFE" stroke-miterlimit="10" d="M260.005 430.102L276.218 428.029"/><path stroke="#FAFCFE" stroke-miterlimit="10" d="M260.155 430.089C260.501 430.189 260.819 426.802 263.7 423.803C266.884 420.502 269.444 421.593 271.832 418.656C274.22 415.718 274.987 410.538 272.55 408.14C271.545 407.15 269.776 406.418 268.203 406.89C266.116 407.521 265.282 409.974 263.601 415.852C262.005 421.422 259.581 429.913 260.155 430.089Z"/><path stroke="#33404F" stroke-miterlimit="10" d="M260.036 430.095C259.725 430.287 258.574 427.077 255.03 424.908C251.114 422.517 248.921 424.217 245.871 421.976C242.821 419.735 240.787 414.914 242.551 411.973C243.278 410.758 244.802 409.605 246.452 409.668C248.624 409.752 250.057 411.914 253.148 417.186C256.074 422.181 260.547 429.797 260.036 430.095Z"/><path stroke="#33404F" stroke-miterlimit="10" d="M260.036 430.095C255.572 426.965 252.477 426.714 250.413 427.139C249.305 427.368 248.207 427.855 246.325 427.914C243.996 427.98 242.059 427.328 240.759 426.74"/><path fill="#33404F" d="M186.877 214.979C196.085 237.705 205.292 260.441 214.5 283.168C211.437 263.102 208.375 243.036 205.313 222.97C199.167 220.31 193.023 217.639 186.877 214.979Z"/><path fill="#5AB282" d="M198.194 191.565C220.215 190.039 242.236 188.523 264.257 186.997C286.602 230.753 308.955 274.52 331.299 318.277C313.786 317.985 293.468 318.767 271.073 321.708C249.734 324.514 230.751 328.716 214.487 333.254C209.055 286.027 203.624 238.801 198.194 191.565Z"/><path stroke="#33404F" stroke-miterlimit="10" d="M198.839 197.138L214.486 333.263"/><path fill="#33404F" d="M220.751 80.1808L239.482 76.3565C241.033 76.1501 243.341 75.9225 246.127 76.0184C260.248 76.4809 270.388 84.4094 274.747 87.5864C283.401 93.8931 296.96 101.684 319.119 109.046C305.252 124.095 291.376 139.143 277.509 154.192L251.758 121.63L200.349 120.758C193.632 133.116 186.906 145.473 180.189 157.831C170.921 142.293 161.655 126.745 152.388 111.207C160.344 107.31 168.525 103.101 176.897 98.5378C184.197 94.5643 191.194 90.5652 197.89 86.581C200.91 85.0269 204.805 83.3565 209.497 82.0865C213.749 80.9339 217.59 80.4084 220.751 80.1808Z"/><path fill="#33404F" d="M301.385 134.358C312.971 122.058 321.09 110.886 319.518 109.405C317.946 107.924 307.28 116.694 295.694 128.994C284.107 141.294 275.989 152.466 277.561 153.948C279.132 155.429 289.799 146.659 301.385 134.358Z"/><path fill="#33404F" d="M183.669 163.204C185.519 162.086 179.998 149.545 171.338 135.193C162.678 120.841 154.159 110.113 152.309 111.231C150.459 112.349 155.98 124.89 164.64 139.242C173.3 153.594 181.819 164.322 183.669 163.204Z"/><path fill="#FAFCFE" stroke="#33404F" stroke-miterlimit="10" d="M234.739 62.8444C241.704 52.3947 241.483 40.013 234.244 35.1891C227.006 30.3651 215.492 34.9257 208.527 45.3753C201.562 55.825 201.784 68.2067 209.022 73.0306C216.26 77.8546 227.774 73.294 234.739 62.8444Z"/><path fill="#FAFCFE" stroke="#33404F" stroke-miterlimit="10" d="M158.967 117.957C123.495 139.939 110.666 147.328 75.2041 169.312C67.3056 167.728 59.4157 166.154 51.5172 164.57C50.7901 164.426 50.0263 164.426 49.3218 164.682C49.3218 164.682 49.312 164.681 49.3109 164.691C48.2029 165.088 47.4128 165.819 46.8644 166.52C46.0013 167.62 45.5781 169.03 45.7437 170.409C45.8129 171.002 45.9962 171.639 46.3515 172.246C47.1883 173.653 48.555 174.348 49.5895 174.578C54.3467 175.628 59.1028 176.687 63.86 177.737C53.1119 183.195 42.3649 188.643 31.607 194.1C29.4557 195.189 28.5487 197.763 29.5537 199.934L29.5849 200.008C30.5179 202.031 32.9358 202.898 34.9634 201.934L58.3884 190.726C50.9479 196.232 43.5084 201.727 36.0679 207.233C34.1889 208.622 33.743 211.239 35.0651 213.16L35.1158 213.235C36.6418 215.447 39.7169 215.954 41.8975 214.362C49.4394 208.838 56.991 203.316 64.5329 197.793C58.8969 203.389 53.2719 208.977 47.6359 214.573C46.0638 216.137 45.9874 218.649 47.4821 220.282L47.534 220.347C49.0978 222.067 51.797 222.143 53.475 220.522C59.477 214.681 65.4779 208.849 71.4897 203.009C68.2183 208.404 64.9457 213.809 61.6645 219.203C60.706 220.778 61.1222 222.812 62.5402 223.83C64.0677 224.931 66.3332 224.56 67.4759 222.936C71.5881 217.053 75.7004 211.17 79.8126 205.287C119.846 181.027 137.228 171.36 177.262 147.1C174.68 141.966 171.588 136.446 167.907 130.698C164.927 126.004 161.902 121.772 158.967 117.957Z"/><path fill="#FAFCFE" d="M157.096 119.109C143.459 127.376 129.793 135.72 116.081 144.118C102.379 152.517 88.7472 160.914 75.1944 169.311C67.2958 167.726 59.4059 166.153 51.5074 164.569C50.7804 164.425 50.0165 164.425 49.312 164.681C49.312 164.681 49.3023 164.68 49.3011 164.689C48.1932 165.086 47.403 165.818 46.8547 166.519C45.9916 167.619 45.5683 169.029 45.7339 170.407C45.8032 171.001 45.9864 171.638 46.3417 172.245C47.1785 173.652 48.5452 174.347 49.5797 174.577C54.3369 175.626 59.093 176.686 63.8502 177.736C53.1021 183.194 42.3552 188.642 31.5973 194.099C29.4459 195.188 28.5389 197.762 29.544 199.933L29.5751 200.006C30.5082 202.03 32.9261 202.897 34.9537 201.932L58.3787 190.725C50.9381 196.231 43.4987 201.726 36.0581 207.232C34.1791 208.621 33.7332 211.238 35.0554 213.159L35.106 213.234C36.6321 215.446 39.7072 215.953 41.8877 214.361C49.4296 208.837 56.9813 203.315 64.5232 197.792C58.8872 203.388 53.2621 208.976 47.6261 214.572C46.054 216.136 45.9776 218.648 47.4724 220.28L47.5242 220.346C49.0881 222.066 51.7872 222.142 53.4652 220.521C59.4672 214.68 65.4692 208.838 71.4799 203.008C68.2085 208.403 64.9359 213.808 61.6547 219.202C60.6962 220.777 61.1124 222.811 62.5304 223.829C64.0579 224.93 66.3234 224.558 67.4661 222.935C71.5783 217.052 75.6906 211.169 79.8028 205.286C82.8567 204.113 85.3644 202.946 87.2199 202.011C93.0288 199.085 94.2413 198.134 94.8125 196.732C95.6235 194.722 95.0162 192.627 94.5427 191.421"/><path stroke="#33404F" stroke-miterlimit="10" d="M157.096 119.109C143.459 127.376 129.793 135.72 116.081 144.118C102.379 152.517 88.7472 160.914 75.1944 169.311C67.2958 167.726 59.4059 166.153 51.5074 164.569C50.7804 164.425 50.0165 164.425 49.312 164.681C49.312 164.681 49.3023 164.68 49.3011 164.689C48.1932 165.086 47.403 165.818 46.8547 166.519C45.9916 167.619 45.5683 169.029 45.7339 170.407C45.8032 171.001 45.9864 171.638 46.3417 172.245C47.1785 173.652 48.5452 174.347 49.5797 174.577C54.3369 175.626 59.093 176.686 63.8502 177.736C53.1021 183.194 42.3552 188.642 31.5973 194.099C29.4459 195.188 28.5389 197.762 29.544 199.933L29.5751 200.006C30.5082 202.03 32.9261 202.897 34.9537 201.932L58.3787 190.725C50.9381 196.231 43.4987 201.726 36.0581 207.232C34.1791 208.621 33.7332 211.238 35.0554 213.159L35.106 213.234C36.6321 215.446 39.7072 215.953 41.8877 214.361C49.4296 208.837 56.9813 203.315 64.5232 197.792C58.8872 203.388 53.2621 208.976 47.6261 214.572C46.054 216.136 45.9776 218.648 47.4724 220.28L47.5242 220.346C49.0881 222.066 51.7872 222.142 53.4652 220.521C59.4672 214.68 65.4692 208.838 71.4799 203.008C68.2085 208.403 64.9359 213.808 61.6547 219.202C60.6962 220.777 61.1124 222.811 62.5304 223.829C64.0579 224.93 66.3234 224.558 67.4661 222.935C71.5783 217.052 75.6906 211.169 79.8028 205.286C82.8567 204.113 85.3644 202.946 87.2199 202.011C93.0288 199.085 94.2413 198.134 94.8125 196.732C95.6235 194.722 95.0162 192.627 94.5427 191.421"/><path stroke="#33404F" stroke-miterlimit="10" d="M65.6936 180.372C66.5127 182.184 68.4195 185.631 72.514 187.934C78.6188 191.364 85.3514 189.865 87.336 189.351"/><path fill="#FAFCFE" d="M216.298 74.9384L216.277 74.946L215.964 75.1675L215.508 77.6948C215.47 77.9384 215.425 78.1515 215.394 78.3364C215.315 78.754 215.252 79.1238 215.202 79.4653L214.975 80.7192C214.949 80.8551 214.914 81.0693 214.886 81.3141C214.847 81.647 214.836 81.9931 214.853 82.3524C214.859 82.4721 214.864 82.6017 214.86 82.7203C214.877 82.9904 214.894 83.2702 214.929 83.5621C214.995 84.0163 215.09 84.474 215.204 84.9437C215.224 85.0255 215.254 85.1083 215.265 85.1791C215.297 85.2522 215.319 85.3144 215.34 85.3863C215.814 86.8408 216.65 88.258 217.956 89.3032C219.616 90.6277 221.744 91.1731 223.455 91.0448C228.028 90.7037 232.392 85.2967 233.755 77.5656C234.296 72.1999 234.836 66.8342 235.376 61.4685"/><path stroke="#33404F" stroke-miterlimit="10" d="M216.298 74.9384L216.277 74.946L215.964 75.1675L215.508 77.6948C215.47 77.9384 215.425 78.1515 215.394 78.3364C215.315 78.754 215.252 79.1238 215.202 79.4653L214.975 80.7192C214.949 80.8551 214.914 81.0693 214.886 81.3141C214.847 81.647 214.836 81.9931 214.853 82.3524C214.859 82.4721 214.864 82.6017 214.86 82.7203C214.877 82.9904 214.894 83.2702 214.929 83.5621C214.995 84.0163 215.09 84.474 215.204 84.9437C215.224 85.0255 215.254 85.1083 215.265 85.1791C215.297 85.2522 215.319 85.3144 215.34 85.3863C215.814 86.8408 216.65 88.258 217.956 89.3032C219.616 90.6277 221.744 91.1731 223.455 91.0448C228.028 90.7037 232.392 85.2967 233.755 77.5656C234.296 72.1999 234.836 66.8342 235.376 61.4685"/><path fill="#33404F" d="M229.23 68.7027C224.548 74.1222 219.864 79.5514 215.181 84.9709C215.004 84.4442 214.768 83.5831 214.696 82.5029C214.602 81.1919 214.811 80.3429 215.235 77.9112C215.363 77.1618 215.559 75.9938 215.779 74.5407C216.631 74.4711 217.668 74.3338 218.84 74.0732C219.114 74.0158 220.694 73.6539 222.412 72.9606C225.567 71.6903 227.994 69.7696 229.23 68.7027Z"/><path fill="#33404F" d="M211.349 42.1187C211.926 41.6003 212.438 41.2035 212.817 40.9398C214.5 41.2152 216.218 41.4548 217.987 41.6805C223.05 42.3194 227.871 42.6621 232.408 42.7932L229.961 45.8132C231.821 49.0665 233.681 52.3198 235.543 55.5633C235.219 58.0662 234.906 60.5704 234.584 63.0635C234.479 64.7981 234.385 66.5337 234.281 68.2682C237.252 66.7879 244.922 62.4506 248.938 53.4106C250.339 50.2688 253.07 44.0665 250.838 37.9812C248.381 31.2743 241.267 28.5806 242.091 26.8803C242.851 25.3113 249.024 27.2305 249.149 26.749C249.313 26.1131 238.617 22.9231 226.817 21.1131C224.254 20.7255 222.538 20.5555 220.378 21.0386C213.829 22.4994 210.386 28.599 209.473 30.3783C208.897 29.706 208.331 29.0347 207.755 28.3623C206.084 31.026 203.722 35.5147 202.658 41.5439C201.333 49.0314 202.649 55.149 203.591 58.3649C203.788 57.2763 204.88 51.5183 207.479 47.0373C208.124 45.9315 209.242 44.0171 211.349 42.1187Z"/><path fill="#FAFCFE" d="M243.926 57.6837C246.209 54.6509 245.984 50.6303 243.424 48.7033C240.864 46.7764 236.939 47.6729 234.656 50.7056C232.374 53.7384 232.598 57.759 235.158 59.6859C237.718 61.6129 241.644 60.7164 243.926 57.6837Z"/><path fill="#FAFCFE" d="M243.453 51.889C243.318 51.774 241.412 50.262 239.252 51.0031C237.184 51.7152 235.744 54.1874 236.211 56.8022"/><path stroke="#33404F" stroke-miterlimit="10" d="M243.453 51.889C243.318 51.774 241.412 50.262 239.252 51.0031C237.184 51.7152 235.744 54.1874 236.211 56.8022"/><path fill="#FAFCFE" d="M237.127 52.7109C237.429 52.6765 239.142 52.5286 240.438 53.7413C241.01 54.2743 241.296 54.8832 241.44 55.2671"/><path stroke="#33404F" stroke-miterlimit="10" d="M237.127 52.7109C237.429 52.6765 239.142 52.5286 240.438 53.7413C241.01 54.2743 241.296 54.8832 241.44 55.2671"/><path stroke="#FAFCFE" stroke-miterlimit="10" d="M187.67 109.865L191.257 124.871"/><path stroke="#FAFCFE" stroke-miterlimit="10" d="M266.245 116.608L261.139 130.791"/><path fill="#33404F" d="M255.829 102.405C262.573 137.418 269.317 172.442 276.052 207.454C253.124 204.022 229.559 200.862 205.392 198.02C189.854 196.192 174.532 194.557 159.447 193.099C173.811 162.567 188.174 132.035 202.538 101.502L255.829 102.405Z"/><path stroke="#33404F" stroke-miterlimit="10" stroke-width=".5" d="M201.698 221.567L185.648 214.121"/><path fill="#FAFCFE" d="M160.103 193.179C159.953 193.191 159.75 193.227 159.512 193.319C159.21 193.442 159.011 193.618 158.887 193.742C172.914 163.708 186.941 133.673 200.968 103.638L201.86 104.059C187.95 133.77 174.031 163.48 160.103 193.179Z"/><path stroke="#FAFCFE" stroke-miterlimit="10" d="M255.829 102.405L275.592 207.659"/><path fill="#FAFCFE" d="M264.518 192.049L244.374 196.929L255.575 228.293L276.105 224.004C277.007 223.672 278.943 222.816 280.438 220.806C282.993 217.372 282.149 213.404 282.004 212.781L264.518 192.049Z"/><path fill="#FAFCFE" d="M284.185 143.198L292.179 149.379C281.23 163.824 270.29 178.271 259.342 192.707C266.719 200.77 274.086 208.833 281.462 216.896C295.943 198.217 310.416 179.527 324.887 160.847C332.969 149.958 330.744 134.594 319.904 126.465C315.948 123.484 312.001 120.514 308.046 117.533C303.857 121.362 299.484 125.666 295.041 130.479C291.016 134.853 287.411 139.118 284.185 143.198Z"/><path stroke="#33404F" stroke-miterlimit="10" d="M282.175 215.977C296.428 197.47 310.681 178.962 324.933 160.455C332.894 149.671 330.683 134.438 319.993 126.376C316.094 123.421 312.195 120.467 308.296 117.512"/><path fill="#FAFCFE" d="M234.791 201.848L230.922 198.639C229.031 197.079 228.696 194.192 230.166 192.229C231.871 189.956 234.845 189.29 237.307 190.629L246.055 195.369"/><path stroke="#33404F" stroke-miterlimit="10" d="M234.791 201.848L230.922 198.639C229.031 197.079 228.696 194.192 230.166 192.229C231.871 189.956 234.845 189.29 237.307 190.629L246.055 195.369"/><path fill="#FAFCFE" d="M264.812 188.61L238.868 195.584C238.265 195.742 237.728 196.087 237.315 196.564L221.858 214.604C220.397 216.32 220.736 218.92 222.591 220.187C224.446 221.455 226.969 221.094 228.403 219.355L240.882 204.125L253.04 201.282"/><path stroke="#33404F" stroke-miterlimit="10" d="M264.812 188.61L238.868 195.584C238.265 195.742 237.728 196.087 237.315 196.564L221.858 214.604C220.397 216.32 220.736 218.92 222.591 220.187C224.446 221.455 226.969 221.094 228.403 219.355L240.882 204.125L253.04 201.282"/><path fill="#FAFCFE" d="M252.839 200.703L241.905 203.182C240.968 203.391 240.123 203.918 239.52 204.661L235.415 209.721C233.536 212.033 233.689 215.386 235.769 217.523L236.061 217.825C238.603 220.423 242.896 220.02 244.907 216.999L246.989 213.877L257.908 211.704"/><path stroke="#33404F" stroke-miterlimit="10" d="M252.839 200.703L241.905 203.182C240.968 203.391 240.123 203.918 239.52 204.661L235.415 209.721C233.536 212.033 233.689 215.386 235.769 217.523L236.061 217.825C238.603 220.423 242.896 220.02 244.907 216.999L246.989 213.877L257.908 211.704"/><path fill="#FAFCFE" d="M257.846 209.265L246.749 211.785C245.923 211.976 245.174 212.435 244.641 213.097L240.618 218.048C238.625 220.495 238.783 224.047 240.988 226.308C243.565 228.95 247.927 228.545 249.984 225.469L251.996 222.439L262.914 220.266"/><path stroke="#33404F" stroke-miterlimit="10" d="M257.846 209.265L246.749 211.785C245.923 211.976 245.174 212.435 244.641 213.097L240.618 218.048C238.625 220.495 238.783 224.047 240.988 226.308C243.565 228.95 247.927 228.545 249.984 225.469L251.996 222.439L262.914 220.266"/><path fill="#FAFCFE" d="M263.149 218.01L251.735 220.602C251.113 220.748 250.548 221.089 250.152 221.589C248.547 223.347 247.131 224.929 245.92 226.287C243.168 229.37 242.622 230.051 242.431 231.091C242.034 233.287 243.557 235.44 244.999 236.937C245.767 237.741 246.779 238.246 247.882 238.404C248.555 238.502 249.271 238.566 250.046 238.557C253.809 238.528 256.791 236.95 258.674 235.611C260.092 234.605 260.724 232.763 260.112 231.134C260.103 231.123 260.105 231.113 260.097 231.092C259.802 230.314 259.279 229.528 258.746 229.079C257.565 228.069 255.818 228.252 255.586 228.285"/><path stroke="#33404F" stroke-miterlimit="10" d="M263.149 218.01L251.735 220.602C251.113 220.748 250.548 221.089 250.152 221.589C248.547 223.347 247.131 224.929 245.92 226.287C243.168 229.37 242.622 230.051 242.431 231.091C242.034 233.287 243.557 235.44 244.999 236.937C245.767 237.741 246.779 238.246 247.882 238.404C248.555 238.502 249.271 238.566 250.046 238.557C253.809 238.528 256.791 236.95 258.674 235.611C260.092 234.605 260.724 232.763 260.112 231.134C260.103 231.123 260.105 231.113 260.097 231.092C259.802 230.314 259.279 229.528 258.746 229.079C257.565 228.069 255.818 228.252 255.586 228.285"/><path stroke="#33404F" stroke-miterlimit="10" d="M251.052 234.714L255.014 228.844C255.315 228.392 255.788 228.08 256.317 227.973L276.106 223.994C276.381 223.937 276.649 223.849 276.901 223.729C279.786 222.308 281.202 219.625 281.42 219.114C282.887 215.742 281.688 212.606 281.434 211.981"/><path fill="#FAFCFE" d="M264.689 222.476C267.345 222.135 269.407 221.137 269.293 220.246C269.18 219.355 266.935 218.909 264.279 219.249C261.623 219.59 259.562 220.588 259.675 221.479C259.788 222.37 262.033 222.816 264.689 222.476Z"/><path fill="#FAFCFE" d="M261.851 189.416C272.435 175.375 283.031 161.325 293.615 147.283L261.851 189.416Z"/><path stroke="#33404F" stroke-miterlimit="10" d="M261.851 189.416C272.435 175.375 283.031 161.325 293.615 147.283"/><path stroke="#33404F" stroke-miterlimit="10" d="M284.185 143.198L292.178 149.388"/></svg>