<svg xmlns="http://www.w3.org/2000/svg" width="42" height="46" fill="none" viewBox="0 0 42 46"><g clip-path="url(#clip0_140:36)"><path fill="#24243F" d="M26.0119 0.589583C16.5826 2.32577 4.44416 8.53276 0.974679 19.7628C-1.62505 28.1742 1.69234 36.007 2.64763 38.2556C4.10671 41.7059 5.96502 44.2992 7.36231 46C7.11516 43.5437 6.87278 39.8857 7.08189 35.4547C7.42409 28.2493 7.61896 24.079 10.4563 19.5507C11.1074 18.5081 13.6549 14.6514 18.7878 11.6517C22.0101 9.76973 25.0519 8.92595 27.0718 8.51951C24.5433 9.71231 17.747 13.3084 13.5456 20.9688C10.5134 26.4955 10.2139 31.62 10.2662 34.2886C13.6549 33.8112 18.3933 32.6317 22.5329 29.3582C27.1525 25.7047 29.5574 20.6022 31.6819 16.0916C33.83 11.528 34.7189 7.89659 38.7873 3.88968C40.0322 2.66594 41.1968 1.77797 42 1.21249C38.64 0.351023 32.8417 -0.669485 26.0119 0.589583Z"/></g><defs><clipPath id="clip0_140:36"><rect width="42" height="46" fill="#fff"/></clipPath></defs></svg>